<svg width="39" height="32" viewBox="0 0 39 32" fill="none" xmlns="http://www.w3.org/2000/svg">
<g filter="url(#filter0_d_23_174)">
<g filter="url(#filter1_d_23_174)">
<path d="M34 12C34 12.3242 33.8727 12.635 33.6461 12.8642C33.4195 13.0935 33.1121 13.2222 32.7917 13.2222H6.20833C5.88786 13.2222 5.58052 13.0935 5.35391 12.8642C5.12731 12.635 5 12.3242 5 12C5 11.6758 5.12731 11.365 5.35391 11.1358C5.58052 10.9065 5.88786 10.7778 6.20833 10.7778H32.7917C33.1121 10.7778 33.4195 10.9065 33.6461 11.1358C33.8727 11.365 34 11.6758 34 12ZM6.20833 3.44444H32.7917C33.1121 3.44444 33.4195 3.31567 33.6461 3.08646C33.8727 2.85725 34 2.54638 34 2.22222C34 1.89807 33.8727 1.58719 33.6461 1.35798C33.4195 1.12877 33.1121 1 32.7917 1H6.20833C5.88786 1 5.58052 1.12877 5.35391 1.35798C5.12731 1.58719 5 1.89807 5 2.22222C5 2.54638 5.12731 2.85725 5.35391 3.08646C5.58052 3.31567 5.88786 3.44444 6.20833 3.44444ZM32.7917 20.5556H6.20833C5.88786 20.5556 5.58052 20.6843 5.35391 20.9135C5.12731 21.1427 5 21.4536 5 21.7778C5 22.1019 5.12731 22.4128 5.35391 22.642C5.58052 22.8712 5.88786 23 6.20833 23H32.7917C33.1121 23 33.4195 22.8712 33.6461 22.642C33.8727 22.4128 34 22.1019 34 21.7778C34 21.4536 33.8727 21.1427 33.6461 20.9135C33.4195 20.6843 33.1121 20.5556 32.7917 20.5556Z" fill="#B2B2B2"/>
<path d="M34.0017 13.2158C34.3214 12.8924 34.5 12.4549 34.5 12C34.5 11.5451 34.3214 11.1076 34.0017 10.7842C33.6817 10.4606 33.2466 10.2778 32.7917 10.2778H6.20833C5.7534 10.2778 5.31827 10.4606 4.99834 10.7842C4.67861 11.1076 4.5 11.5451 4.5 12C4.5 12.4549 4.67861 12.8924 4.99834 13.2158C5.31827 13.5394 5.7534 13.7222 6.20833 13.7222H32.7917C33.2466 13.7222 33.6817 13.5394 34.0017 13.2158ZM6.20833 3.94444H32.7917C33.2466 3.94444 33.6817 3.76159 34.0017 3.43799C34.3214 3.11458 34.5 2.67715 34.5 2.22222C34.5 1.76729 34.3214 1.32986 34.0017 1.00645C33.6817 0.682853 33.2466 0.5 32.7917 0.5H6.20833C5.7534 0.5 5.31827 0.682853 4.99834 1.00645C4.67861 1.32986 4.5 1.76729 4.5 2.22222C4.5 2.67715 4.67861 3.11458 4.99834 3.43799C5.31827 3.76159 5.7534 3.94444 6.20833 3.94444ZM32.7917 20.0556H6.20833C5.7534 20.0556 5.31827 20.2384 4.99834 20.562C4.67861 20.8854 4.5 21.3228 4.5 21.7778C4.5 22.2327 4.67861 22.6701 4.99834 22.9935C5.31827 23.3171 5.7534 23.5 6.20833 23.5H32.7917C33.2466 23.5 33.6817 23.3171 34.0017 22.9935C34.3214 22.6701 34.5 22.2327 34.5 21.7778C34.5 21.3228 34.3214 20.8854 34.0017 20.562C33.6817 20.2384 33.2466 20.0556 32.7917 20.0556Z" stroke="black"/>
</g>
</g>
<defs>
<filter id="filter0_d_23_174" x="0" y="0" width="39" height="32" filterUnits="userSpaceOnUse" color-interpolation-filters="sRGB">
<feFlood flood-opacity="0" result="BackgroundImageFix"/>
<feColorMatrix in="SourceAlpha" type="matrix" values="0 0 0 0 0 0 0 0 0 0 0 0 0 0 0 0 0 0 127 0" result="hardAlpha"/>
<feOffset dy="4"/>
<feGaussianBlur stdDeviation="2"/>
<feComposite in2="hardAlpha" operator="out"/>
<feColorMatrix type="matrix" values="0 0 0 0 0 0 0 0 0 0 0 0 0 0 0 0 0 0 0.25 0"/>
<feBlend mode="normal" in2="BackgroundImageFix" result="effect1_dropShadow_23_174"/>
<feBlend mode="normal" in="SourceGraphic" in2="effect1_dropShadow_23_174" result="shape"/>
</filter>
<filter id="filter1_d_23_174" x="0" y="0" width="39" height="32" filterUnits="userSpaceOnUse" color-interpolation-filters="sRGB">
<feFlood flood-opacity="0" result="BackgroundImageFix"/>
<feColorMatrix in="SourceAlpha" type="matrix" values="0 0 0 0 0 0 0 0 0 0 0 0 0 0 0 0 0 0 127 0" result="hardAlpha"/>
<feOffset dy="4"/>
<feGaussianBlur stdDeviation="2"/>
<feComposite in2="hardAlpha" operator="out"/>
<feColorMatrix type="matrix" values="0 0 0 0 0 0 0 0 0 0 0 0 0 0 0 0 0 0 0.25 0"/>
<feBlend mode="normal" in2="BackgroundImageFix" result="effect1_dropShadow_23_174"/>
<feBlend mode="normal" in="SourceGraphic" in2="effect1_dropShadow_23_174" result="shape"/>
</filter>
</defs>
</svg>
