<svg width="43" height="43" viewBox="0 0 43 43" fill="none" xmlns="http://www.w3.org/2000/svg">
<g filter="url(#filter0_d_22_145)">
<path d="M37.5161 15.7234C37.3629 15.8513 37.1809 15.9527 36.9806 16.0219C36.7803 16.0911 36.5656 16.1267 36.3488 16.1267C36.132 16.1267 35.9173 16.0911 35.717 16.0219C35.5167 15.9527 35.3347 15.8513 35.1815 15.7234L23.1497 5.69483V32.625C23.1497 32.9897 22.9759 33.3394 22.6665 33.5973C22.357 33.8551 21.9374 34 21.4998 34C21.0622 34 20.6426 33.8551 20.3332 33.5973C20.0237 33.3394 19.8499 32.9897 19.8499 32.625V5.69483L7.8181 15.7234C7.50852 15.9814 7.08863 16.1264 6.65081 16.1264C6.21299 16.1264 5.7931 15.9814 5.48351 15.7234C5.17392 15.4654 5 15.1155 5 14.7506C5 14.3858 5.17392 14.0358 5.48351 13.7779L20.3325 1.40326C20.4857 1.27542 20.6677 1.174 20.868 1.10481C21.0683 1.03561 21.283 1 21.4998 1C21.7166 1 21.9313 1.03561 22.1316 1.10481C22.3319 1.174 22.5139 1.27542 22.6671 1.40326L37.5161 13.7779C37.6695 13.9055 37.7912 14.0572 37.8742 14.2241C37.9573 14.391 38 14.5699 38 14.7506C38 14.9313 37.9573 15.1102 37.8742 15.2772C37.7912 15.4441 37.6695 15.5957 37.5161 15.7234Z" fill="#B2B2B2"/>
<path d="M8.1382 16.1075L8.13823 16.1075L19.3499 6.7625V32.625C19.3499 33.1548 19.6031 33.6398 20.0131 33.9814C20.4203 34.3208 20.9561 34.5 21.4998 34.5C22.0435 34.5 22.5793 34.3208 22.9866 33.9814C23.3965 33.6398 23.6497 33.1548 23.6497 32.625V6.7625L34.8612 16.1073C35.0638 16.2764 35.2997 16.4067 35.5537 16.4945C35.8078 16.5822 36.0777 16.6267 36.3488 16.6267C36.6199 16.6267 36.8898 16.5822 37.1439 16.4945C37.3977 16.4068 37.6335 16.2765 37.836 16.1077C38.0389 15.9388 38.2058 15.7332 38.3219 15.4998C38.4382 15.266 38.5 15.0111 38.5 14.7506C38.5 14.4902 38.4382 14.2353 38.3219 14.0014C38.2059 13.7681 38.039 13.5626 37.8362 13.3937C37.8361 13.3937 37.8361 13.3936 37.836 13.3936L22.9874 1.01933C22.7848 0.850304 22.5489 0.719963 22.2949 0.632215C22.0408 0.544455 21.7709 0.5 21.4998 0.5C21.2287 0.5 20.9588 0.544455 20.7047 0.632214C20.4507 0.719963 20.2148 0.850303 20.0122 1.01933L5.16341 13.3937L5.47783 13.771L5.16341 13.3937C4.75331 13.7355 4.5 14.2207 4.5 14.7506C4.5 15.2806 4.75331 15.7658 5.16341 16.1075C5.57085 16.4471 6.10687 16.6264 6.65081 16.6264C7.19475 16.6264 7.73076 16.4471 8.1382 16.1075Z" stroke="black"/>
</g>
<defs>
<filter id="filter0_d_22_145" x="0" y="0" width="43" height="43" filterUnits="userSpaceOnUse" color-interpolation-filters="sRGB">
<feFlood flood-opacity="0" result="BackgroundImageFix"/>
<feColorMatrix in="SourceAlpha" type="matrix" values="0 0 0 0 0 0 0 0 0 0 0 0 0 0 0 0 0 0 127 0" result="hardAlpha"/>
<feOffset dy="4"/>
<feGaussianBlur stdDeviation="2"/>
<feComposite in2="hardAlpha" operator="out"/>
<feColorMatrix type="matrix" values="0 0 0 0 0 0 0 0 0 0 0 0 0 0 0 0 0 0 0.25 0"/>
<feBlend mode="normal" in2="BackgroundImageFix" result="effect1_dropShadow_22_145"/>
<feBlend mode="normal" in="SourceGraphic" in2="effect1_dropShadow_22_145" result="shape"/>
</filter>
</defs>
</svg>
